# Rhino

mtllib base 4.mtl
usemtl Plaster (3)
v 0 2 -0.5
v 0 2.5 -0.5
v 0.5 2 -0.5
v 0.5 2.5 -0.5
v 0.5 2 -0.5
v 0.5 2.5 -0.5
v 0.5 2 -1
v 0.5 2.5 -1
v 0.5 2 -1
v 0.5 2.5 -1
v 0 2 -1
v 0 2.5 -1
v 0 2 -1
v 0 2.5 -1
v 0 2 -0.5
v 0 2.5 -0.5
v 0 2 -0.5
v 0.5 2 -0.5
v 0.5 2 -1
v 0 2 -1
v 0 2.5 -0.5
v 0.5 2.5 -0.5
v 0.5 2.5 -1
v 0 2.5 -1
vt 0 0
vt 0 0.66666620969772339
vt 0.25 0
vt 0.25 0.66666620969772339
vt 0.25 0
vt 0.25 0.66666620969772339
vt 0.5 0
vt 0.5 0.66666620969772339
vt 0.5 0
vt 0.5 0.66666620969772339
vt 0.75 0
vt 0.75 0.66666620969772339
vt 0.75 0
vt 0.75 0.66666620969772339
vt 1 0
vt 1 0.66666620969772339
vt 0 1
vt 0.25 1
vt 0.25 0.66666686534881592
vt 0 0.66666686534881592
vt 0.75 0.66666686534881592
vt 1 0.66666686534881592
vt 1 1
vt 0.75 1
vn 0 0 1
vn 0 0 1
vn 0 0 1
vn 0 0 1
vn 1 0 0
vn 1 0 0
vn 1 0 0
vn 1 0 0
vn 0 0 -1
vn 0 0 -1
vn 0 0 -1
vn 0 0 -1
vn -1 0 0
vn -1 0 0
vn -1 0 0
vn -1 0 0
vn 0 -1 0
vn 0 -1 0
vn 0 -1 0
vn 0 -1 0
vn 0 1 0
vn 0 1 0
vn 0 1 0
vn 0 1 0
f 18/18/18 17/17/17 20/20/20 19/19/19
f 24/24/24 21/21/21 22/22/22 23/23/23
f 1/1/1 3/3/3 4/4/4 2/2/2
f 5/5/5 7/7/7 8/8/8 6/6/6
f 9/9/9 11/11/11 12/12/12 10/10/10
f 13/13/13 15/15/15 16/16/16 14/14/14
usemtl Plaster (3)
v -0.5 2 -0.5
v -0.5 2.5 -0.5
v 0 2 -0.5
v 0 2.5 -0.5
v 0 2 -0.5
v 0 2.5 -0.5
v 0 2 -1
v 0 2.5 -1
v 0 2 -1
v 0 2.5 -1
v -0.5 2 -1
v -0.5 2.5 -1
v -0.5 2 -1
v -0.5 2.5 -1
v -0.5 2 -0.5
v -0.5 2.5 -0.5
v -0.5 2 -0.5
v 0 2 -0.5
v 0 2 -1
v -0.5 2 -1
v -0.5 2.5 -0.5
v 0 2.5 -0.5
v 0 2.5 -1
v -0.5 2.5 -1
vt 0 0
vt 0 0.66666620969772339
vt 0.25 0
vt 0.25 0.66666620969772339
vt 0.25 0
vt 0.25 0.66666620969772339
vt 0.5 0
vt 0.5 0.66666620969772339
vt 0.5 0
vt 0.5 0.66666620969772339
vt 0.75 0
vt 0.75 0.66666620969772339
vt 0.75 0
vt 0.75 0.66666620969772339
vt 1 0
vt 1 0.66666620969772339
vt 0 1
vt 0.25 1
vt 0.25 0.66666686534881592
vt 0 0.66666686534881592
vt 0.75 0.66666686534881592
vt 1 0.66666686534881592
vt 1 1
vt 0.75 1
vn 0 0 1
vn 0 0 1
vn 0 0 1
vn 0 0 1
vn 1 0 0
vn 1 0 0
vn 1 0 0
vn 1 0 0
vn 0 0 -1
vn 0 0 -1
vn 0 0 -1
vn 0 0 -1
vn -1 0 0
vn -1 0 0
vn -1 0 0
vn -1 0 0
vn 0 -1 0
vn 0 -1 0
vn 0 -1 0
vn 0 -1 0
vn 0 1 0
vn 0 1 0
vn 0 1 0
vn 0 1 0
f 42/42/42 41/41/41 44/44/44 43/43/43
f 48/48/48 45/45/45 46/46/46 47/47/47
f 25/25/25 27/27/27 28/28/28 26/26/26
f 29/29/29 31/31/31 32/32/32 30/30/30
f 33/33/33 35/35/35 36/36/36 34/34/34
f 37/37/37 39/39/39 40/40/40 38/38/38
usemtl Plaster (3)
v -0.5 2 0
v -0.5 2.5 0
v 0 2 0
v 0 2.5 0
v 0 2 0
v 0 2.5 0
v 0 2 -0.5
v 0 2.5 -0.5
v 0 2 -0.5
v 0 2.5 -0.5
v -0.5 2 -0.5
v -0.5 2.5 -0.5
v -0.5 2 -0.5
v -0.5 2.5 -0.5
v -0.5 2 0
v -0.5 2.5 0
v -0.5 2 0
v 0 2 0
v 0 2 -0.5
v -0.5 2 -0.5
v -0.5 2.5 0
v 0 2.5 0
v 0 2.5 -0.5
v -0.5 2.5 -0.5
vt 0 0
vt 0 0.66666620969772339
vt 0.25 0
vt 0.25 0.66666620969772339
vt 0.25 0
vt 0.25 0.66666620969772339
vt 0.5 0
vt 0.5 0.66666620969772339
vt 0.5 0
vt 0.5 0.66666620969772339
vt 0.75 0
vt 0.75 0.66666620969772339
vt 0.75 0
vt 0.75 0.66666620969772339
vt 1 0
vt 1 0.66666620969772339
vt 0 1
vt 0.25 1
vt 0.25 0.66666686534881592
vt 0 0.66666686534881592
vt 0.75 0.66666686534881592
vt 1 0.66666686534881592
vt 1 1
vt 0.75 1
vn 0 0 1
vn 0 0 1
vn 0 0 1
vn 0 0 1
vn 1 0 0
vn 1 0 0
vn 1 0 0
vn 1 0 0
vn 0 0 -1
vn 0 0 -1
vn 0 0 -1
vn 0 0 -1
vn -1 0 0
vn -1 0 0
vn -1 0 0
vn -1 0 0
vn 0 -1 0
vn 0 -1 0
vn 0 -1 0
vn 0 -1 0
vn 0 1 0
vn 0 1 0
vn 0 1 0
vn 0 1 0
f 66/66/66 65/65/65 68/68/68 67/67/67
f 72/72/72 69/69/69 70/70/70 71/71/71
f 49/49/49 51/51/51 52/52/52 50/50/50
f 53/53/53 55/55/55 56/56/56 54/54/54
f 57/57/57 59/59/59 60/60/60 58/58/58
f 61/61/61 63/63/63 64/64/64 62/62/62
usemtl Plaster (3)
v 0 2 0
v 0 2.5 0
v 0.5 2 0
v 0.5 2.5 0
v 0.5 2 0
v 0.5 2.5 0
v 0.5 2 -0.5
v 0.5 2.5 -0.5
v 0.5 2 -0.5
v 0.5 2.5 -0.5
v 0 2 -0.5
v 0 2.5 -0.5
v 0 2 -0.5
v 0 2.5 -0.5
v 0 2 0
v 0 2.5 0
v 0 2 0
v 0.5 2 0
v 0.5 2 -0.5
v 0 2 -0.5
v 0 2.5 0
v 0.5 2.5 0
v 0.5 2.5 -0.5
v 0 2.5 -0.5
vt 0 0
vt 0 0.66666620969772339
vt 0.25 0
vt 0.25 0.66666620969772339
vt 0.25 0
vt 0.25 0.66666620969772339
vt 0.5 0
vt 0.5 0.66666620969772339
vt 0.5 0
vt 0.5 0.66666620969772339
vt 0.75 0
vt 0.75 0.66666620969772339
vt 0.75 0
vt 0.75 0.66666620969772339
vt 1 0
vt 1 0.66666620969772339
vt 0 1
vt 0.25 1
vt 0.25 0.66666686534881592
vt 0 0.66666686534881592
vt 0.75 0.66666686534881592
vt 1 0.66666686534881592
vt 1 1
vt 0.75 1
vn 0 0 1
vn 0 0 1
vn 0 0 1
vn 0 0 1
vn 1 0 0
vn 1 0 0
vn 1 0 0
vn 1 0 0
vn 0 0 -1
vn 0 0 -1
vn 0 0 -1
vn 0 0 -1
vn -1 0 0
vn -1 0 0
vn -1 0 0
vn -1 0 0
vn 0 -1 0
vn 0 -1 0
vn 0 -1 0
vn 0 -1 0
vn 0 1 0
vn 0 1 0
vn 0 1 0
vn 0 1 0
f 90/90/90 89/89/89 92/92/92 91/91/91
f 96/96/96 93/93/93 94/94/94 95/95/95
f 73/73/73 75/75/75 76/76/76 74/74/74
f 77/77/77 79/79/79 80/80/80 78/78/78
f 81/81/81 83/83/83 84/84/84 82/82/82
f 85/85/85 87/87/87 88/88/88 86/86/86
usemtl Plaster (3)
v -0.5 1.5 0
v -0.5 2 0
v 0 1.5 0
v 0 2 0
v 0 1.5 0
v 0 2 0
v 0 1.5 -0.5
v 0 2 -0.5
v 0 1.5 -0.5
v 0 2 -0.5
v -0.5 1.5 -0.5
v -0.5 2 -0.5
v -0.5 1.5 -0.5
v -0.5 2 -0.5
v -0.5 1.5 0
v -0.5 2 0
v -0.5 1.5 0
v 0 1.5 0
v 0 1.5 -0.5
v -0.5 1.5 -0.5
v -0.5 2 0
v 0 2 0
v 0 2 -0.5
v -0.5 2 -0.5
vt 0 0
vt 0 0.66666620969772339
vt 0.25 0
vt 0.25 0.66666620969772339
vt 0.25 0
vt 0.25 0.66666620969772339
vt 0.5 0
vt 0.5 0.66666620969772339
vt 0.5 0
vt 0.5 0.66666620969772339
vt 0.75 0
vt 0.75 0.66666620969772339
vt 0.75 0
vt 0.75 0.66666620969772339
vt 1 0
vt 1 0.66666620969772339
vt 0 1
vt 0.25 1
vt 0.25 0.66666686534881592
vt 0 0.66666686534881592
vt 0.75 0.66666686534881592
vt 1 0.66666686534881592
vt 1 1
vt 0.75 1
vn 0 0 1
vn 0 0 1
vn 0 0 1
vn 0 0 1
vn 1 0 0
vn 1 0 0
vn 1 0 0
vn 1 0 0
vn 0 0 -1
vn 0 0 -1
vn 0 0 -1
vn 0 0 -1
vn -1 0 0
vn -1 0 0
vn -1 0 0
vn -1 0 0
vn 0 -1 0
vn 0 -1 0
vn 0 -1 0
vn 0 -1 0
vn 0 1 0
vn 0 1 0
vn 0 1 0
vn 0 1 0
f 114/114/114 113/113/113 116/116/116 115/115/115
f 120/120/120 117/117/117 118/118/118 119/119/119
f 97/97/97 99/99/99 100/100/100 98/98/98
f 101/101/101 103/103/103 104/104/104 102/102/102
f 105/105/105 107/107/107 108/108/108 106/106/106
f 109/109/109 111/111/111 112/112/112 110/110/110
usemtl Plaster (3)
v -0.5 1.5 -0.5
v -0.5 2 -0.5
v 0 1.5 -0.5
v 0 2 -0.5
v 0 1.5 -0.5
v 0 2 -0.5
v 0 1.5 -1
v 0 2 -1
v 0 1.5 -1
v 0 2 -1
v -0.5 1.5 -1
v -0.5 2 -1
v -0.5 1.5 -1
v -0.5 2 -1
v -0.5 1.5 -0.5
v -0.5 2 -0.5
v -0.5 1.5 -0.5
v 0 1.5 -0.5
v 0 1.5 -1
v -0.5 1.5 -1
v -0.5 2 -0.5
v 0 2 -0.5
v 0 2 -1
v -0.5 2 -1
vt 0 0
vt 0 0.66666620969772339
vt 0.25 0
vt 0.25 0.66666620969772339
vt 0.25 0
vt 0.25 0.66666620969772339
vt 0.5 0
vt 0.5 0.66666620969772339
vt 0.5 0
vt 0.5 0.66666620969772339
vt 0.75 0
vt 0.75 0.66666620969772339
vt 0.75 0
vt 0.75 0.66666620969772339
vt 1 0
vt 1 0.66666620969772339
vt 0 1
vt 0.25 1
vt 0.25 0.66666686534881592
vt 0 0.66666686534881592
vt 0.75 0.66666686534881592
vt 1 0.66666686534881592
vt 1 1
vt 0.75 1
vn 0 0 1
vn 0 0 1
vn 0 0 1
vn 0 0 1
vn 1 0 0
vn 1 0 0
vn 1 0 0
vn 1 0 0
vn 0 0 -1
vn 0 0 -1
vn 0 0 -1
vn 0 0 -1
vn -1 0 0
vn -1 0 0
vn -1 0 0
vn -1 0 0
vn 0 -1 0
vn 0 -1 0
vn 0 -1 0
vn 0 -1 0
vn 0 1 0
vn 0 1 0
vn 0 1 0
vn 0 1 0
f 138/138/138 137/137/137 140/140/140 139/139/139
f 144/144/144 141/141/141 142/142/142 143/143/143
f 121/121/121 123/123/123 124/124/124 122/122/122
f 125/125/125 127/127/127 128/128/128 126/126/126
f 129/129/129 131/131/131 132/132/132 130/130/130
f 133/133/133 135/135/135 136/136/136 134/134/134
usemtl Plaster (3)
v 0 1.5 -0.5
v 0 2 -0.5
v 0.5 1.5 -0.5
v 0.5 2 -0.5
v 0.5 1.5 -0.5
v 0.5 2 -0.5
v 0.5 1.5 -1
v 0.5 2 -1
v 0.5 1.5 -1
v 0.5 2 -1
v 0 1.5 -1
v 0 2 -1
v 0 1.5 -1
v 0 2 -1
v 0 1.5 -0.5
v 0 2 -0.5
v 0 1.5 -0.5
v 0.5 1.5 -0.5
v 0.5 1.5 -1
v 0 1.5 -1
v 0 2 -0.5
v 0.5 2 -0.5
v 0.5 2 -1
v 0 2 -1
vt 0 0
vt 0 0.66666620969772339
vt 0.25 0
vt 0.25 0.66666620969772339
vt 0.25 0
vt 0.25 0.66666620969772339
vt 0.5 0
vt 0.5 0.66666620969772339
vt 0.5 0
vt 0.5 0.66666620969772339
vt 0.75 0
vt 0.75 0.66666620969772339
vt 0.75 0
vt 0.75 0.66666620969772339
vt 1 0
vt 1 0.66666620969772339
vt 0 1
vt 0.25 1
vt 0.25 0.66666686534881592
vt 0 0.66666686534881592
vt 0.75 0.66666686534881592
vt 1 0.66666686534881592
vt 1 1
vt 0.75 1
vn 0 0 1
vn 0 0 1
vn 0 0 1
vn 0 0 1
vn 1 0 0
vn 1 0 0
vn 1 0 0
vn 1 0 0
vn 0 0 -1
vn 0 0 -1
vn 0 0 -1
vn 0 0 -1
vn -1 0 0
vn -1 0 0
vn -1 0 0
vn -1 0 0
vn 0 -1 0
vn 0 -1 0
vn 0 -1 0
vn 0 -1 0
vn 0 1 0
vn 0 1 0
vn 0 1 0
vn 0 1 0
f 162/162/162 161/161/161 164/164/164 163/163/163
f 168/168/168 165/165/165 166/166/166 167/167/167
f 145/145/145 147/147/147 148/148/148 146/146/146
f 149/149/149 151/151/151 152/152/152 150/150/150
f 153/153/153 155/155/155 156/156/156 154/154/154
f 157/157/157 159/159/159 160/160/160 158/158/158
usemtl Plaster (3)
v 0 1.5 0
v 0 2 0
v 0.5 1.5 0
v 0.5 2 0
v 0.5 1.5 0
v 0.5 2 0
v 0.5 1.5 -0.5
v 0.5 2 -0.5
v 0.5 1.5 -0.5
v 0.5 2 -0.5
v 0 1.5 -0.5
v 0 2 -0.5
v 0 1.5 -0.5
v 0 2 -0.5
v 0 1.5 0
v 0 2 0
v 0 1.5 0
v 0.5 1.5 0
v 0.5 1.5 -0.5
v 0 1.5 -0.5
v 0 2 0
v 0.5 2 0
v 0.5 2 -0.5
v 0 2 -0.5
vt 0 0
vt 0 0.66666620969772339
vt 0.25 0
vt 0.25 0.66666620969772339
vt 0.25 0
vt 0.25 0.66666620969772339
vt 0.5 0
vt 0.5 0.66666620969772339
vt 0.5 0
vt 0.5 0.66666620969772339
vt 0.75 0
vt 0.75 0.66666620969772339
vt 0.75 0
vt 0.75 0.66666620969772339
vt 1 0
vt 1 0.66666620969772339
vt 0 1
vt 0.25 1
vt 0.25 0.66666686534881592
vt 0 0.66666686534881592
vt 0.75 0.66666686534881592
vt 1 0.66666686534881592
vt 1 1
vt 0.75 1
vn 0 0 1
vn 0 0 1
vn 0 0 1
vn 0 0 1
vn 1 0 0
vn 1 0 0
vn 1 0 0
vn 1 0 0
vn 0 0 -1
vn 0 0 -1
vn 0 0 -1
vn 0 0 -1
vn -1 0 0
vn -1 0 0
vn -1 0 0
vn -1 0 0
vn 0 -1 0
vn 0 -1 0
vn 0 -1 0
vn 0 -1 0
vn 0 1 0
vn 0 1 0
vn 0 1 0
vn 0 1 0
f 186/186/186 185/185/185 188/188/188 187/187/187
f 192/192/192 189/189/189 190/190/190 191/191/191
f 169/169/169 171/171/171 172/172/172 170/170/170
f 173/173/173 175/175/175 176/176/176 174/174/174
f 177/177/177 179/179/179 180/180/180 178/178/178
f 181/181/181 183/183/183 184/184/184 182/182/182
usemtl Plaster (3)
v 0 1 -0.5
v 0 1.5 -0.5
v 0.5 1 -0.5
v 0.5 1.5 -0.5
v 0.5 1 -0.5
v 0.5 1.5 -0.5
v 0.5 1 -1
v 0.5 1.5 -1
v 0.5 1 -1
v 0.5 1.5 -1
v 0 1 -1
v 0 1.5 -1
v 0 1 -1
v 0 1.5 -1
v 0 1 -0.5
v 0 1.5 -0.5
v 0 1 -0.5
v 0.5 1 -0.5
v 0.5 1 -1
v 0 1 -1
v 0 1.5 -0.5
v 0.5 1.5 -0.5
v 0.5 1.5 -1
v 0 1.5 -1
vt 0 0
vt 0 0.66666620969772339
vt 0.25 0
vt 0.25 0.66666620969772339
vt 0.25 0
vt 0.25 0.66666620969772339
vt 0.5 0
vt 0.5 0.66666620969772339
vt 0.5 0
vt 0.5 0.66666620969772339
vt 0.75 0
vt 0.75 0.66666620969772339
vt 0.75 0
vt 0.75 0.66666620969772339
vt 1 0
vt 1 0.66666620969772339
vt 0 1
vt 0.25 1
vt 0.25 0.66666686534881592
vt 0 0.66666686534881592
vt 0.75 0.66666686534881592
vt 1 0.66666686534881592
vt 1 1
vt 0.75 1
vn 0 0 1
vn 0 0 1
vn 0 0 1
vn 0 0 1
vn 1 0 0
vn 1 0 0
vn 1 0 0
vn 1 0 0
vn 0 0 -1
vn 0 0 -1
vn 0 0 -1
vn 0 0 -1
vn -1 0 0
vn -1 0 0
vn -1 0 0
vn -1 0 0
vn 0 -1 0
vn 0 -1 0
vn 0 -1 0
vn 0 -1 0
vn 0 1 0
vn 0 1 0
vn 0 1 0
vn 0 1 0
f 210/210/210 209/209/209 212/212/212 211/211/211
f 216/216/216 213/213/213 214/214/214 215/215/215
f 193/193/193 195/195/195 196/196/196 194/194/194
f 197/197/197 199/199/199 200/200/200 198/198/198
f 201/201/201 203/203/203 204/204/204 202/202/202
f 205/205/205 207/207/207 208/208/208 206/206/206
usemtl Plaster (3)
v 0 1 0
v 0 1.5 0
v 0.5 1 0
v 0.5 1.5 0
v 0.5 1 0
v 0.5 1.5 0
v 0.5 1 -0.5
v 0.5 1.5 -0.5
v 0.5 1 -0.5
v 0.5 1.5 -0.5
v 0 1 -0.5
v 0 1.5 -0.5
v 0 1 -0.5
v 0 1.5 -0.5
v 0 1 0
v 0 1.5 0
v 0 1 0
v 0.5 1 0
v 0.5 1 -0.5
v 0 1 -0.5
v 0 1.5 0
v 0.5 1.5 0
v 0.5 1.5 -0.5
v 0 1.5 -0.5
vt 0 0
vt 0 0.66666620969772339
vt 0.25 0
vt 0.25 0.66666620969772339
vt 0.25 0
vt 0.25 0.66666620969772339
vt 0.5 0
vt 0.5 0.66666620969772339
vt 0.5 0
vt 0.5 0.66666620969772339
vt 0.75 0
vt 0.75 0.66666620969772339
vt 0.75 0
vt 0.75 0.66666620969772339
vt 1 0
vt 1 0.66666620969772339
vt 0 1
vt 0.25 1
vt 0.25 0.66666686534881592
vt 0 0.66666686534881592
vt 0.75 0.66666686534881592
vt 1 0.66666686534881592
vt 1 1
vt 0.75 1
vn 0 0 1
vn 0 0 1
vn 0 0 1
vn 0 0 1
vn 1 0 0
vn 1 0 0
vn 1 0 0
vn 1 0 0
vn 0 0 -1
vn 0 0 -1
vn 0 0 -1
vn 0 0 -1
vn -1 0 0
vn -1 0 0
vn -1 0 0
vn -1 0 0
vn 0 -1 0
vn 0 -1 0
vn 0 -1 0
vn 0 -1 0
vn 0 1 0
vn 0 1 0
vn 0 1 0
vn 0 1 0
f 234/234/234 233/233/233 236/236/236 235/235/235
f 240/240/240 237/237/237 238/238/238 239/239/239
f 217/217/217 219/219/219 220/220/220 218/218/218
f 221/221/221 223/223/223 224/224/224 222/222/222
f 225/225/225 227/227/227 228/228/228 226/226/226
f 229/229/229 231/231/231 232/232/232 230/230/230
usemtl Plaster (3)
v -0.5 1 -0.5
v -0.5 1.5 -0.5
v 0 1 -0.5
v 0 1.5 -0.5
v 0 1 -0.5
v 0 1.5 -0.5
v 0 1 -1
v 0 1.5 -1
v 0 1 -1
v 0 1.5 -1
v -0.5 1 -1
v -0.5 1.5 -1
v -0.5 1 -1
v -0.5 1.5 -1
v -0.5 1 -0.5
v -0.5 1.5 -0.5
v -0.5 1 -0.5
v 0 1 -0.5
v 0 1 -1
v -0.5 1 -1
v -0.5 1.5 -0.5
v 0 1.5 -0.5
v 0 1.5 -1
v -0.5 1.5 -1
vt 0 0
vt 0 0.66666620969772339
vt 0.25 0
vt 0.25 0.66666620969772339
vt 0.25 0
vt 0.25 0.66666620969772339
vt 0.5 0
vt 0.5 0.66666620969772339
vt 0.5 0
vt 0.5 0.66666620969772339
vt 0.75 0
vt 0.75 0.66666620969772339
vt 0.75 0
vt 0.75 0.66666620969772339
vt 1 0
vt 1 0.66666620969772339
vt 0 1
vt 0.25 1
vt 0.25 0.66666686534881592
vt 0 0.66666686534881592
vt 0.75 0.66666686534881592
vt 1 0.66666686534881592
vt 1 1
vt 0.75 1
vn 0 0 1
vn 0 0 1
vn 0 0 1
vn 0 0 1
vn 1 0 0
vn 1 0 0
vn 1 0 0
vn 1 0 0
vn 0 0 -1
vn 0 0 -1
vn 0 0 -1
vn 0 0 -1
vn -1 0 0
vn -1 0 0
vn -1 0 0
vn -1 0 0
vn 0 -1 0
vn 0 -1 0
vn 0 -1 0
vn 0 -1 0
vn 0 1 0
vn 0 1 0
vn 0 1 0
vn 0 1 0
f 258/258/258 257/257/257 260/260/260 259/259/259
f 264/264/264 261/261/261 262/262/262 263/263/263
f 241/241/241 243/243/243 244/244/244 242/242/242
f 245/245/245 247/247/247 248/248/248 246/246/246
f 249/249/249 251/251/251 252/252/252 250/250/250
f 253/253/253 255/255/255 256/256/256 254/254/254
usemtl Plaster (3)
v -0.5 1 0
v -0.5 1.5 0
v 0 1 0
v 0 1.5 0
v 0 1 0
v 0 1.5 0
v 0 1 -0.5
v 0 1.5 -0.5
v 0 1 -0.5
v 0 1.5 -0.5
v -0.5 1 -0.5
v -0.5 1.5 -0.5
v -0.5 1 -0.5
v -0.5 1.5 -0.5
v -0.5 1 0
v -0.5 1.5 0
v -0.5 1 0
v 0 1 0
v 0 1 -0.5
v -0.5 1 -0.5
v -0.5 1.5 0
v 0 1.5 0
v 0 1.5 -0.5
v -0.5 1.5 -0.5
vt 0 0
vt 0 0.66666620969772339
vt 0.25 0
vt 0.25 0.66666620969772339
vt 0.25 0
vt 0.25 0.66666620969772339
vt 0.5 0
vt 0.5 0.66666620969772339
vt 0.5 0
vt 0.5 0.66666620969772339
vt 0.75 0
vt 0.75 0.66666620969772339
vt 0.75 0
vt 0.75 0.66666620969772339
vt 1 0
vt 1 0.66666620969772339
vt 0 1
vt 0.25 1
vt 0.25 0.66666686534881592
vt 0 0.66666686534881592
vt 0.75 0.66666686534881592
vt 1 0.66666686534881592
vt 1 1
vt 0.75 1
vn 0 0 1
vn 0 0 1
vn 0 0 1
vn 0 0 1
vn 1 0 0
vn 1 0 0
vn 1 0 0
vn 1 0 0
vn 0 0 -1
vn 0 0 -1
vn 0 0 -1
vn 0 0 -1
vn -1 0 0
vn -1 0 0
vn -1 0 0
vn -1 0 0
vn 0 -1 0
vn 0 -1 0
vn 0 -1 0
vn 0 -1 0
vn 0 1 0
vn 0 1 0
vn 0 1 0
vn 0 1 0
f 282/282/282 281/281/281 284/284/284 283/283/283
f 288/288/288 285/285/285 286/286/286 287/287/287
f 265/265/265 267/267/267 268/268/268 266/266/266
f 269/269/269 271/271/271 272/272/272 270/270/270
f 273/273/273 275/275/275 276/276/276 274/274/274
f 277/277/277 279/279/279 280/280/280 278/278/278
